<svg width="18" height="19" viewBox="0 0 18 19" fill="none" xmlns="http://www.w3.org/2000/svg">
<path d="M15 17.0565C15.6628 17.0565 16.2 16.5128 16.2 15.8423C16.2 15.1718 15.6628 14.6281 15 14.6281C14.3373 14.6281 13.8 15.1718 13.8 15.8423C13.8 16.5128 14.3373 17.0565 15 17.0565Z" fill="#FFB757" stroke="#FFF8E7" stroke-width="2" stroke-linecap="round" stroke-linejoin="round"/>
<path d="M7.00005 17.0565C7.66277 17.0565 8.20005 16.5128 8.20005 15.8423C8.20005 15.1718 7.66277 14.6281 7.00005 14.6281C6.3373 14.6281 5.80005 15.1718 5.80005 15.8423C5.80005 16.5128 6.3373 17.0565 7.00005 17.0565Z" fill="#FFB757" stroke="#FFF8E7" stroke-width="2" stroke-linecap="round" stroke-linejoin="round"/>
<path d="M3.4 2.60332H17L15.4 11.4216H5L3.4 2.60332ZM3.4 2.60332C3.26666 2.06888 2.6 1 1 1L3.4 2.60332Z" fill="#FFB757"/>
<path d="M3.4 2.60332H17L15.4 11.4216H5L3.4 2.60332ZM3.4 2.60332C3.26666 2.06888 2.6 1 1 1" stroke="#FFF8E7" stroke-width="2" stroke-linecap="round" stroke-linejoin="round"/>
<path d="M15.3999 11.4216H4.9999H3.58452C2.15707 11.4216 1.3999 12.0479 1.3999 13.025C1.3999 14.002 2.15707 14.6283 3.58452 14.6283H14.9999" fill="#FFB757"/>
<path d="M15.3999 11.4216H4.9999H3.58452C2.15707 11.4216 1.3999 12.0479 1.3999 13.025C1.3999 14.002 2.15707 14.6283 3.58452 14.6283H14.9999" stroke="#FFF8E7" stroke-width="2" stroke-linecap="round" stroke-linejoin="round"/>
</svg>
