<svg width="19" height="21" viewBox="0 0 19 21" fill="none" xmlns="http://www.w3.org/2000/svg">
<path d="M1.71436 19.3236V18.1784C1.71436 13.751 5.29608 10.1618 9.71435 10.1618C14.1326 10.1618 17.7143 13.751 17.7143 18.1784V19.3236" fill="#FFB757"/>
<path d="M1.71436 19.3236V18.1784C1.71436 13.751 5.29608 10.1618 9.71435 10.1618C14.1326 10.1618 17.7143 13.751 17.7143 18.1784V19.3236" stroke="#FFF8E7" stroke-width="2" stroke-linecap="round" stroke-linejoin="round"/>
<path d="M9.71437 10.1618C12.2391 10.1618 14.2858 8.1108 14.2858 5.58089C14.2858 3.05093 12.2391 1 9.71437 1C7.18964 1 5.14294 3.05093 5.14294 5.58089C5.14294 8.1108 7.18964 10.1618 9.71437 10.1618Z" fill="#FFB757" stroke="#FFF8E7" stroke-width="2" stroke-linecap="round" stroke-linejoin="round"/>
</svg>
